<svg id="visual" viewBox="0 0 900 600" width="900" height="600" xmlns="http://www.w3.org/2000/svg" xmlns:xlink="http://www.w3.org/1999/xlink" version="1.1"><rect x="0" y="0" width="900" height="600" fill="#ffffff"></rect><path d="M0 45L900 45L900 601L0 601Z" fill="#fafafa"></path><path d="M0 91L900 91L900 601L0 601Z" fill="#fafafa"></path><path d="M0 137L900 137L900 601L0 601Z" fill="#f9f9f9"></path><path d="M0 184L900 184L900 601L0 601Z" fill="#f9f9f9"></path><path d="M0 230L900 230L900 601L0 601Z" fill="#f9f9f9"></path><path d="M0 276L900 276L900 601L0 601Z" fill="#f8f8f8"></path><path d="M0 322L900 322L900 601L0 601Z" fill="#f6f6f6"></path><path d="M0 368L900 368L900 601L0 601Z" fill="#f3f3f3"></path><path d="M0 414L900 414L900 601L0 601Z" fill="#f0f0f0"></path><path d="M0 461L900 461L900 601L0 601Z" fill="#ededed"></path><path d="M0 507L900 507L900 601L0 601Z" fill="#eaeaea"></path><path d="M0 553L900 553L900 601L0 601Z" fill="#e7e7e7"></path></svg>