<svg xmlns="http://www.w3.org/2000/svg" version="1.1" xmlns:xlink="http://www.w3.org/1999/xlink" xmlns:svgjs="http://svgjs.dev/svgjs" width="1440" height="560" preserveAspectRatio="none" viewBox="0 0 1440 560"><g mask="url(&quot;#SvgjsMask1026&quot;)" fill="none"><path d="M61.46 140C61.46 113.04 12.49 132.45 0 104C-18.24 62.45 -29.84 22.16 0 0C40.16 -29.84 70 0 140 0C210 0 210 0 280 0C350 0 350 0 420 0C474.54 0 479.19 -11.15 529.07 0C549.19 4.5 544.25 31.29 560 31.29C576.34 31.29 572.28 4.69 593.25 0C642.28 -10.96 646.63 0 700 0C770 0 770 0 840 0C910 0 910 0 980 0C1050 0 1050 0 1120 0C1190 0 1190 0 1260 0C1330 0 1330 0 1400 0C1470 0 1505 -35 1540 0C1575 35 1540 70 1540 140C1540 194.09 1554.58 201.52 1540 248.18C1532.71 271.52 1496.25 266.96 1496.25 280C1496.25 291.3 1533.97 277.56 1540 296.87C1555.84 347.56 1540 358.43 1540 420C1540 490 1575 525 1540 560C1505 595 1470 560 1400 560C1330 560 1330 560 1260 560C1190 560 1190 560 1120 560C1050 560 1050 560 980 560C910 560 910 560 840 560C789.69 560 785.12 571.76 739.38 560C715.12 553.76 720.33 541.26 700 524C637.88 471.26 636.67 472.63 574.48 420C566.67 413.39 565.9 405.52 560 405.52C555.43 405.52 555.44 412.32 553.54 420C536.35 489.56 560.88 519.05 521.82 560C494.11 589.05 470.91 560 420 560C394.54 560 390.58 571.14 369.09 560C320.58 534.85 321.74 487.41 280 487.41C244.53 487.41 254.34 539.43 214.67 560C184.34 575.73 177.33 560 140 560C77.78 560 15.56 578.27 15.56 560C15.56 538.27 80.45 523.51 140 480C176.27 453.51 207.2 443.95 207.2 420C207.2 400.82 170.83 412.08 140 393.75C67.23 350.48 63.71 348.57 0 296.8C-6.29 291.69 0 288.4 0 280C0 270 -3.97 269.04 0 260C26.76 199.04 61.46 191.04 61.46 140" stroke="rgba(255, 14, 0, 0.58)" stroke-width="6"></path><path d="M280 255.16C267.63 255.16 255.56 265.02 255.56 280C255.56 309.52 267.51 344.17 280 344.17C292.57 344.17 305.67 309.34 305.67 280C305.67 264.84 292.68 255.16 280 255.16" stroke="rgba(255, 14, 0, 0.58)" stroke-width="6"></path><path d="M700 180.83C659.93 183.94 644.65 234.26 644.65 280C644.65 311.52 670.86 309.28 700 335.35C749.09 379.28 752.38 375.77 801.11 420C822.38 439.3 818.21 462.42 840 462.42C868.09 462.42 873.76 445 900.87 420C943.76 380.45 944.77 379.67 980 333.33C997.99 309.67 1007.32 302.5 1007.32 280C1007.32 268.27 995.26 266.24 980 264.86C911.6 258.67 904.63 284.25 840 264.86C764.63 242.24 757.61 176.37 700 180.83" stroke="rgba(255, 14, 0, 0.58)" stroke-width="6"></path><path d="M1260 416.22C1249.13 416.22 1238.46 417.43 1238.46 420C1238.46 422.65 1248.93 426.67 1260 426.67C1287.7 426.67 1316 422.62 1316 420C1316 417.39 1287.9 416.22 1260 416.22" stroke="rgba(255, 14, 0, 0.58)" stroke-width="6"></path><path d="M140 84C86.33 53.23 50.83 84.5 0 54C-19.17 42.5 -19.48 7.52 0 0C50.52 -19.48 70 0 140 0C210 0 210 0 280 0C350 0 350 0 420 0C454.18 0 460.26 -14.55 488.37 0C530.26 21.68 523.53 72.47 560 72.47C597.85 72.47 593.13 22.71 637 0C663.13 -13.53 668.5 0 700 0C770 0 770 0 840 0C856.15 0 856.54 -3.09 872.31 0C926.54 10.63 929.13 27.45 980 27.45C1000.05 27.45 993.66 4.02 1014.15 0C1063.66 -9.71 1067.07 0 1120 0C1190 0 1190 0 1260 0C1320.93 0 1334.26 -18.5 1381.85 0C1404.26 8.72 1390.51 54.44 1400 54.44C1409.59 54.44 1397.19 8.87 1420 0C1467.19 -18.35 1512.31 -32.31 1540 0C1572.31 37.69 1540 70 1540 140C1540 154.32 1550.52 160.37 1540 168.64C1480.52 215.37 1462.23 203.3 1400 250C1388.03 258.98 1403.08 270.25 1391.6 280C1333.08 329.71 1330.97 355.62 1260 368.92C1195.17 381.07 1179.83 362.71 1120 330.91C1096.17 318.25 1114.35 297.55 1092.68 280C1044.35 240.88 1040.54 232.53 980 217.57C914.2 201.31 902.82 238.1 840 217.57C784.17 199.32 789.12 181.18 742.71 140C719.12 119.06 721.36 93.33 700 93.33C678.64 93.33 675.94 114.54 657.29 140C607.57 207.87 610.28 210 563.26 280C561.64 282.42 561.2 282.18 560 284.83C529.42 352.18 537.68 357.29 499.69 420C467.68 472.84 463.22 515.93 420 515.93C370.52 515.93 328.01 477.81 314.29 420C300.01 359.84 331.72 346.07 364 280C384.58 237.89 392.14 241.92 420 203.64C443.09 171.92 465.9 169.88 465.9 140C465.9 115.48 444.52 94.84 420 94.84C391.14 94.84 389.56 117.42 359.13 140C319.56 169.35 316.88 166.27 280 198.71C237.31 236.27 240.27 239.63 200 280C170.27 309.8 171.83 339.06 140 339.06C103.26 339.06 62.86 317.01 62.86 280C62.86 222.31 100.09 213.77 140 149.66C143.66 143.77 150 146.45 150 140C150 113.62 161.33 96.23 140 84" stroke="rgba(255, 14, 0, 0.58)" stroke-width="6"></path><path d="M1260 126.54C1239.35 126.54 1218.82 133.27 1218.82 140C1218.82 146.73 1239.35 153.46 1260 153.46C1281.82 153.46 1303.75 146.73 1303.75 140C1303.75 133.27 1281.82 126.54 1260 126.54" stroke="rgba(255, 14, 0, 0.58)" stroke-width="6"></path><path d="M695.17 420C695.17 418.25 697.67 416.74 700 416.74C702.03 416.74 703.89 418.27 703.89 420C703.89 421.9 702.05 424 700 424C697.69 424 695.17 421.88 695.17 420" stroke="rgba(255, 14, 0, 0.58)" stroke-width="6"></path><path d="M1444 420C1490.33 377.76 1510.82 339.04 1540 339.04C1558.82 339.04 1540 379.52 1540 420C1540 470.15 1553.38 475.93 1540 520.3C1532.27 545.93 1523.83 552.61 1497.78 560C1453.83 572.46 1448.89 560 1400 560C1330 560 1330 560 1260 560C1219.61 560 1179.23 571.49 1179.23 560C1179.23 546.49 1216.59 528.35 1260 510C1326.97 481.69 1336.01 497.97 1400 466.67C1428.01 452.97 1420.33 441.57 1444 420" stroke="rgba(255, 14, 0, 0.58)" stroke-width="6"></path><path d="M910 560C910 554.9 947.39 540 980 540C993.16 540 1001.54 554.23 1001.54 560C1001.54 564.23 990.77 560 980 560C945 560 910 564.9 910 560" stroke="rgba(255, 14, 0, 0.58)" stroke-width="6"></path><path d="M11.67 0C11.67 1.03 4.41 4 0 4C-1.43 4 -1.49 0.51 0 0C4.35 -1.49 11.67 -0.97 11.67 0" stroke="rgba(255, 14, 0, 0.58)" stroke-width="6"></path><path d="M275 140C242.82 71.33 211.59 48.75 213.33 0C214.09 -21.25 246.66 0 280 0C350 0 350 0 420 0C433.84 0 447.67 -7.08 447.67 0C447.67 12.11 437.88 23.18 420 38.39C355.57 93.18 351.52 89.19 283.04 140C281.52 141.13 281.64 142.26 280 142.26C277.62 142.26 276.15 142.46 275 140" stroke="rgba(255, 14, 0, 0.58)" stroke-width="6"></path><path d="M523.28 140C523.28 123.41 541.54 113.65 560 113.65C578.88 113.65 597.97 123.29 597.97 140C597.97 164.46 578.77 196 560 196C541.42 196 523.28 164.58 523.28 140" stroke="rgba(255, 14, 0, 0.58)" stroke-width="6"></path><path d="M700 28.52C687.27 28.52 680.75 9.14 680.75 0C680.75 -5.12 690.38 0 700 0C723.34 0 746.67 -6.57 746.67 0C746.67 7.69 720.23 28.52 700 28.52" stroke="rgba(255, 14, 0, 0.58)" stroke-width="6"></path><path d="M802.03 140C802.03 113.64 810.42 88.35 840 81.05C899.4 66.39 913.4 78.01 980 96.08C1022.02 107.48 1057.24 120.82 1057.24 140C1057.24 157.91 1020.42 164.64 980 170.27C911.8 179.77 906.07 181.51 840 170.27C817.08 166.37 802.03 158.25 802.03 140" stroke="rgba(255, 14, 0, 0.58)" stroke-width="6"></path><path d="M1120 44.21C1099.37 36.6 1099.51 15.56 1099.51 0C1099.51 -6.54 1109.76 0 1120 0C1190 0 1190 0 1260 0C1288.52 0 1317.04 -12.13 1317.04 0C1317.04 17.49 1296.32 51.08 1260 59.23C1197.8 73.19 1179.61 66.21 1120 44.21" stroke="rgba(255, 14, 0, 0.58)" stroke-width="6"></path><path d="M1540 72.12C1526.73 72.12 1491.43 23.14 1491.43 0C1491.43 -12.92 1530.23 -14.51 1540 0C1554.51 21.55 1551.01 72.12 1540 72.12" stroke="rgba(255, 14, 0, 0.58)" stroke-width="6"></path><path d="M134.29 280C134.29 275.72 137.39 270.34 140 270.34C142.47 270.34 144.44 275.58 144.44 280C144.44 282.6 142.36 284.38 140 284.38C137.28 284.38 134.29 282.74 134.29 280" stroke="rgba(255, 14, 0, 0.58)" stroke-width="6"></path><path d="M1181.03 280C1181.03 253.52 1222.33 220.77 1260 220.77C1292.61 220.77 1321.6 253.03 1321.6 280C1321.6 303.46 1291.94 321.62 1260 321.62C1221.65 321.62 1181.03 303.95 1181.03 280" stroke="rgba(255, 14, 0, 0.58)" stroke-width="6"></path><path d="M385.71 420C385.71 360.45 404.86 290.77 420 290.77C434.93 290.77 445.85 358.66 445.85 420C445.85 438.83 434.02 451.11 420 451.11C403.95 451.11 385.71 440.62 385.71 420" stroke="rgba(255, 14, 0, 0.58)" stroke-width="6"></path><path d="M1494 420C1494 399.37 1526.02 381.2 1540 381.2C1549.02 381.2 1540 400.6 1540 420C1540 444.03 1549.65 468.06 1540 468.06C1526.65 468.06 1494 442.8 1494 420" stroke="rgba(255, 14, 0, 0.58)" stroke-width="6"></path><path d="M1308.28 560C1308.28 549.48 1357.68 519.7 1400 519.7C1424.65 519.7 1442.22 548.31 1442.22 560C1442.22 568.46 1421.11 560 1400 560C1354.14 560 1308.28 569.63 1308.28 560" stroke="rgba(255, 14, 0, 0.58)" stroke-width="6"></path></g><defs><mask id="SvgjsMask1026"><rect width="1440" height="560" fill="#ffffff"></rect></mask></defs></svg>