<?xml version="1.0" encoding="UTF-8"?>
<!-- Generator: Adobe Illustrator 26.0.3, SVG Export Plug-In . SVG Version: 6.00 Build 0)  -->
<svg xmlns="http://www.w3.org/2000/svg" xmlns:xlink="http://www.w3.org/1999/xlink" version="1.1" id="Layer_1" x="0px" y="0px" viewBox="0 0 160 160" style="enable-background:new 0 0 160 160;" xml:space="preserve">
<style type="text/css">
	.st0{fill:#003046;}
</style>
<g>
	<path class="st0" d="M139.1,84h-15h-18.6V29.5c0-0.6-0.4-1-1-1H28.3c-0.6,0-1,0.4-1,1V114h-6.4c-0.6,0-1,0.4-1,1v7   c0,5.2,4.3,9.5,9.5,9.5h66.7c0,0,0.1,0,0.2,0c5.1-0.1,9.3-4.3,9.3-9.5v-18.3h18.5c0.6,0,1-0.4,1-1V86h6.1v21.5   c-2.5,0.7-4.4,4.2-4.4,8.4c0,0.6,0.4,1,1,1h8.8c0.5,0,1-0.5,1-1c0-4.3-1.9-7.7-4.4-8.4V86h5.9c0.6,0,1-0.4,1-1S139.7,84,139.1,84z    M135.5,114.9h-6.7c0.3-3.4,1.8-5.6,3.3-5.6S135.2,111.5,135.5,114.9z M103.5,30.5v10c-2.3-0.2-3.6-0.9-4.9-1.6   c-1.6-1-3.4-1.9-6.8-1.9c-3.4,0-5.1,1-6.8,1.9c-1.5,0.8-3,1.6-5.9,1.6s-4.4-0.8-5.9-1.6c-1.6-1-3.4-1.9-6.8-1.9   c-3.4,0-5.1,1-6.8,1.9c-1.5,0.8-3,1.6-5.9,1.6s-4.4-0.8-5.9-1.6c-1.6-1-3.4-1.9-6.8-1.9s-5.1,1-6.8,1.9c-1.3,0.7-2.7,1.4-5,1.6v-10   H103.5z M29.4,129.6c-4.1,0-7.5-3.4-7.5-7.5v-6h64.7v6c0,3,1.5,5.8,3.7,7.5H29.4z M103.6,122c0,4.1-3.4,7.5-7.5,7.5   c-4.1,0-7.5-3.4-7.5-7.5v-7c0-0.6-0.4-1-1-1H29.3V42.5c2.8-0.2,4.4-1,5.9-1.9c1.5-0.8,3-1.6,5.9-1.6s4.4,0.8,5.9,1.6   c1.6,1,3.4,1.9,6.8,1.9c3.4,0,5.1-1,6.8-1.9c1.5-0.8,3-1.6,5.9-1.6c2.9,0,4.4,0.8,5.9,1.6c1.6,1,3.4,1.9,6.8,1.9   c3.4,0,5.1-1,6.8-1.9c1.5-0.8,3-1.6,5.9-1.6s4.4,0.8,5.9,1.6c1.4,0.9,3,1.7,5.8,1.9V84h-25h-15c-0.6,0-1,0.4-1,1s0.4,1,1,1h14v16.7   c0,0.6,0.4,1,1,1h25.1V122z M123.1,101.7H79.5V86h43.6V101.7z"></path>
	<path class="st0" d="M70.7,71.6c0.3,1.7,1.8,3,3.5,3c2,0,3.6-1.6,3.6-3.6c0-0.3,0-0.5-0.1-0.8l12.1-9.3c0.6,0.4,1.3,0.6,2,0.6   c2,0,3.6-1.6,3.6-3.6s-1.6-3.6-3.6-3.6s-3.6,1.6-3.6,3.6c0,0.5,0.1,1,0.3,1.4l-11.8,9.1c-0.6-0.6-1.5-1-2.5-1c-1.4,0-2.7,0.8-3.2,2   l-10.4-6.1c0-0.1,0-0.2,0-0.3c0-2-1.6-3.6-3.6-3.6s-3.6,1.6-3.6,3.6c0,0.6,0.2,1.2,0.4,1.7l-10.5,7.9c-0.6-0.5-1.4-0.8-2.2-0.8   c-2,0-3.6,1.6-3.6,3.6s1.6,3.6,3.6,3.6s3.6-1.6,3.6-3.6c0-0.4-0.1-0.8-0.2-1.2l10.8-8.1c0.5,0.3,1.1,0.5,1.8,0.5   c1.2,0,2.2-0.5,2.8-1.4L70.7,71.6z M91.8,56.3c0.9,0,1.6,0.7,1.6,1.6c0,0.9-0.7,1.6-1.6,1.6c-0.9,0-1.6-0.7-1.6-1.6   C90.2,57,90.9,56.3,91.8,56.3z M74.2,69.4c0.9,0,1.6,0.7,1.6,1.6s-0.7,1.6-1.6,1.6c-0.9,0-1.6-0.7-1.6-1.6S73.3,69.4,74.2,69.4z    M41.1,77.1c-0.9,0-1.6-0.7-1.6-1.6s0.7-1.6,1.6-1.6c0.5,0,1,0.2,1.3,0.6c0,0,0,0.1,0,0.1c0,0,0.1,0.1,0.1,0.1   c0.1,0.2,0.2,0.5,0.2,0.8C42.7,76.4,42,77.1,41.1,77.1z M57,64.7c-0.9,0-1.6-0.7-1.6-1.6c0-0.9,0.7-1.6,1.6-1.6s1.6,0.7,1.6,1.6   C58.6,64,57.9,64.7,57,64.7z"></path>
</g>
</svg>
