<?xml version="1.0" encoding="UTF-8"?>
<svg xmlns="http://www.w3.org/2000/svg" viewBox="0 0 96 96">
  <g id="Layer_2" data-name="Layer 2">
    <path d="M64,70.5H28a4.5,4.5,0,0,1,0-9H74a3.5,3.5,0,0,0,0-7H40a4.5,4.5,0,0,1,0-9H56a3.5,3.5,0,0,0,0-7H18a.5.5,0,0,1,0-1H56a4.5,4.5,0,0,1,0,9H40a3.5,3.5,0,0,0,0,7H74a4.5,4.5,0,0,1,0,9H28a3.5,3.5,0,0,0,0,7H64a.5.5,0,0,1,0,1Z" fill="#43d6b9"></path>
    <path d="M86,17.5H10a.5.5,0,0,0-.5.5V78a.5.5,0,0,0,.5.5H86a.5.5,0,0,0,.5-.5V18A.5.5,0,0,0,86,17.5Zm-.5,1V30.738a14.246,14.246,0,0,1-5.646-1.2,17.158,17.158,0,0,0-13.03,0,14.323,14.323,0,0,1-6.147,1.215,14.333,14.333,0,0,1-6.151-1.215,15.354,15.354,0,0,0-6.517-1.285,15.352,15.352,0,0,0-6.516,1.285,14.325,14.325,0,0,1-6.148,1.215,14.344,14.344,0,0,1-6.153-1.215,15.361,15.361,0,0,0-6.519-1.285,15.375,15.375,0,0,0-6.521,1.285,14.275,14.275,0,0,1-5.652,1.2V18.5Zm-75,59V31.737a15.329,15.329,0,0,0,6.02-1.272,14.347,14.347,0,0,1,6.153-1.215,14.342,14.342,0,0,1,6.152,1.215,15.37,15.37,0,0,0,6.52,1.285,15.347,15.347,0,0,0,6.515-1.285,14.33,14.33,0,0,1,6.149-1.215,14.332,14.332,0,0,1,6.15,1.215,15.363,15.363,0,0,0,6.518,1.285,15.338,15.338,0,0,0,6.514-1.285,16.16,16.16,0,0,1,12.3,0A15.3,15.3,0,0,0,85.5,31.737V77.5Z" fill="#0169e1"></path>
    <circle cx="74" cy="24" r="2" fill="#43d6b9"></circle>
    <circle cx="80" cy="24" r="2" fill="#43d6b9"></circle>
    <circle cx="68" cy="24" r="2" fill="#43d6b9"></circle>
  </g>
</svg>
