<?xml version="1.0" encoding="utf-8"?>
<!-- Generator: Adobe Illustrator 27.8.1, SVG Export Plug-In . SVG Version: 6.00 Build 0)  -->
<svg version="1.1" id="Camada_1" xmlns="http://www.w3.org/2000/svg" xmlns:xlink="http://www.w3.org/1999/xlink" x="0px" y="0px"
	 viewBox="0 0 86.1 78.1" style="enable-background:new 0 0 86.1 78.1;" xml:space="preserve">
<style type="text/css">
	.st0{fill:#020202;}
</style>
<path class="st0" d="M39.9,42.8H6.3c-1.1,0-2-0.9-2-2v0c0-1.1,0.9-2,2-2h33.7c1.1,0,2,0.9,2,2v0C41.9,41.9,41,42.8,39.9,42.8z
	 M46.3,40.8c0.1,0.8-0.4,1.5-1.1,1.8l-12.1,5.5c-0.2,0.1-0.5,0.2-0.8,0.2c-0.7,0-1.4-0.4-1.7-1.1c-0.4-0.9,0-2,0.9-2.4l8.7-3.9
	l-8.7-3.9c-0.9-0.4-1.3-1.5-0.9-2.5c0.3-0.7,1-1.1,1.7-1.1c0.2,0,0.5,0.1,0.8,0.2L45.2,39C45.9,39.4,46.3,40.1,46.3,40.8z"/>
<path d="M25.3,46c3.1-2,5.7-10.5,9.6-5.9c1.7,2,2.2,4.8,4.9,5.9c2.2,0.8,4.3,0,5.9-1.5c1.4-1.3,1.9-3.4,3.3-4.7
	c1.5-1.5,3.1-1.5,5.1,0c0.7,0.5,1.3,1.8,1.8,2.5c1.7,2.2,3.8,4,6.8,3.7c4.3-0.5,7.6-7.4,11.9-6.1c2.2,0.6,3.6-2.7,1.4-3.4
	c-4.3-1.3-6.7,1.2-9.9,3.7c-6.8,5.2-7.1-2.5-11.8-5c-3.1-1.6-6.1-0.2-8,2.5c-0.6,0.8-0.9,1.7-1.5,2.5c-1.1,1.2-2.7,2.5-4.6,1.6
	c-1-0.5-2-3.5-2.8-4.4c-1.7-2.1-4.3-3.1-6.9-2c-3.9,1.7-6.9,11.3-11.5,5.9c-2-2.4-3.8-4.8-7.2-4.9c-3.4-0.1-6.1,1.9-7.4,4.9
	c-0.9,2.1,2.4,3.5,3.4,1.4c3.1-7.2,8,1.5,10.9,3.5C20.6,47.4,23.1,47.4,25.3,46z M71.9,46.1c2.5-1.5,4.9-3,7.4-4.6
	c1.3-0.9,3.7-1.8,3-3.9c-0.5-1.7-3.3-2.3-4.7-3c-2.8-1.3-5.5-2.5-8.3-3.8c-2.1-1-3.6,2.4-1.5,3.4c2.1,1,4.1,1.8,6.2,2.8
	c1,0.4,1.9,0.9,2.9,1.3c0.1,0,0.2,0.1,0.3,0.1c-0.8,0.5-1.6,0.9-2.5,1.5c-1.6,1-3.4,2.1-5,3.1C67.7,44.4,69.9,47.4,71.9,46.1z"/>
</svg>
