<?xml version="1.0" encoding="utf-8"?>
<!-- Generator: Adobe Illustrator 27.8.1, SVG Export Plug-In . SVG Version: 6.00 Build 0)  -->
<svg version="1.1" id="Camada_1" xmlns="http://www.w3.org/2000/svg" xmlns:xlink="http://www.w3.org/1999/xlink" x="0px" y="0px"
	 viewBox="0 0 350 350" style="enable-background:new 0 0 350 350;" xml:space="preserve">
<style type="text/css">
	.st0{fill:none;stroke:#F27979;stroke-width:5;stroke-miterlimit:10;}
	.st1{fill:none;stroke:#0199A1;stroke-width:5;stroke-linecap:round;stroke-miterlimit:10;}
	.st2{fill:none;stroke:#F277A4;stroke-width:5;stroke-linecap:round;stroke-miterlimit:10;}
	.st3{fill:none;stroke:#F2387C;stroke-width:5;stroke-linecap:round;stroke-miterlimit:10;}
	.st4{fill:#824AFF;}
	.st5{fill:none;stroke:#F27979;stroke-width:5;stroke-linecap:round;stroke-miterlimit:10;}
</style>
<path class="st0" d="M226.1,181.6l-7.4-1.7c0.1-1.5,0.2-2.9,0.2-4.4c0-7-1.6-13.6-4.5-19.4l5.5-4.4c1.2-0.9,1.3-2.6,0.4-3.8l-8.7-11
	c-0.9-1.2-2.6-1.3-3.8-0.4l-5.6,4.4c-5.2-4.1-11.3-7.1-17.9-8.6v-6.2c0-1.5-1.2-2.7-2.7-2.7h-14c-1.5,0-2.7,1.2-2.7,2.7v6.2
	c-6.8,1.5-13,4.6-18.2,8.8l-5-4c-1.2-0.9-2.8-0.7-3.8,0.4l-8.7,11c-0.9,1.2-0.7,2.8,0.4,3.7l5.1,4.1c-2.8,5.8-4.3,12.3-4.3,19.1
	c0,0.1,0,0.2,0,0.3l-6.7,1.5c-1.4,0.3-2.3,1.8-2,3.2l3.1,13.7c0.3,1.4,1.8,2.3,3.2,2l6.7-1.5c2.9,6,7.1,11.2,12.2,15.4l-3.1,6.4
	c-0.6,1.3-0.1,2.9,1.2,3.6l12.6,6.1c1.3,0.6,2.9,0.1,3.6-1.2l3-6.3c3.3,0.8,6.7,1.2,10.3,1.2c3.2,0,6.4-0.4,9.4-1l3,6.3
	c0.6,1.3,2.2,1.9,3.6,1.2l12.6-6.1c1.3-0.6,1.9-2.2,1.2-3.6l-2.9-6c4.3-3.3,8.1-7.5,10.9-12.2c0,0,0.1,0,0.1,0l9.1,2.1
	c1.4,0.3,2.9-0.6,3.2-2l3.1-13.7C228.4,183.4,227.5,182,226.1,181.6z M153.8,175.5c0-11.6,9.4-21,21-21s21,9.4,21,21
	c0,11.6-9.4,21-21,21S153.8,187.1,153.8,175.5z"/>
<path class="st1" d="M66.5,323.6l10.7,3.5 M46.8,287.4c-8.6-54.5,57-47.6,57-20.4c0,0,1.5,25.3-1.2,40.2s-25.5,19.9-25.5,19.9
	s-2.7,8.9-8.2,12.1c-6.3,3.7-16.2-5.8-16.2-5.8V307c0,0-10.7-1.4-10.2-12.1c0.5-10.7,17-7.4,17-7.4 M71.8,303.6
	c3.3,3.8,11.2,4.1,11.2,4.1 M74.8,287.4v-7.3 M91.1,287.4v-7.3"/>
<path class="st2" d="M295.4,21.5c0,0-28.7,3.3-47.6-3.6c-13.2-4.8-23.5,18.7,1.6,25.1s43,1.9,44.6,2.4s6.4,2.9,5.9,17.6
	c0,0,16.3-2.4,16.8,7.7c0.5,10.1-10.1,11.5-10.1,11.5v25.1c0,0-9.9,8.9-16.1,5.5c-5.4-3-8.1-11.5-8.1-11.5s-22.7-4.7-25.3-18.8
	s-1.1-38.1-1.1-38.1 M282.2,101.2l10.6-3.3 M316.6,71.4c3.6-38.7-6.7-43.5-6.7-43.5 M276.3,82.9c0,0,7.9-0.4,11.2-3.9 M284.5,56.7
	v6.9 M268.3,56.7v6.9"/>
<path class="st3" d="M309.3,252.4c0,0-24-21.1-53.9-3.8c-11.2,6.5-11.1,20.1-11.1,20.1c23.2,5.9,42.5,2.8,44,3.3
	c1.5,0.5,5.9,2.7,5.4,16.3c0,0,15-2.2,15.5,7.1c0.5,9.4-9.4,10.6-9.4,10.6v23.2c0,0-9.1,8.3-14.9,5.1c-5-2.8-7.5-10.6-7.5-10.6
	s-20.9-4.3-23.4-17.4s-1.1-35.2-1.1-35.2 M277.5,323.6l9.8-3.1 M300.6,317.4c36.1-10,14.4-56.2,14.4-56.2 M272.1,306.6
	c0,0,7.3-0.3,10.3-3.6 M279.6,282.5v6.4 M264.7,282.5v6.4 M323.5,291.8c21.1,0,15.6-17,15.6-17s-2.4-13.9-19.2-6"/>
<g>
	<path class="st4" d="M125.5,49.5c19.4-9.2,41.1-13,62.5-12.1c16.5,1,33.4,4.3,48.1,12.1c-27-7.5-55.3-9.1-83-5.3
		C143.8,45.4,134.7,47.6,125.5,49.5L125.5,49.5z"/>
</g>
<path class="st5" d="M104,48.9c0,0,1.4,21.4-1,34.1c-2.4,12.7-22.7,16.8-22.7,16.8s-2.4,7.6-7.3,10.3c-5.6,3.1-14.5-4.9-14.5-4.9
	V82.7c0,0-9.6-1.2-9.1-10.3s15.1-6.9,15.1-6.9c-0.5-13.1,3.8-15.3,5.3-15.8c1.4-0.5,20.2,2.5,42.6-3.2c0,0,0.1-13.2-10.7-19.5
	c-28.9-16.7-52.3,3.7-52.3,3.7 M70.8,96.8l9.5,3 M44,39.3c0,0-21.1,44.9,14,54.5 M75.5,79.8c2.9,3.2,10,3.5,10,3.5 M78.2,66.1v-6.2
	 M92.7,66.1v-6.2 M39.2,46.7c-16.3-7.7-18.6,5.8-18.6,5.8S15.2,69,35.7,69"/>
<g>
	<path class="st4" d="M230.3,293.5c-19.4,9.2-41.1,13-62.5,12.1c-16.5-1-33.4-4.3-48.1-12.1c27,7.5,55.3,9.1,83,5.3
		C212,297.7,221.1,295.5,230.3,293.5L230.3,293.5z"/>
</g>
<g>
	<path class="st4" d="M306.9,119.7c10.1,21.5,13.9,45.9,11.6,69.6c-1.5,14.1-4.8,28.4-11.6,41c7.5-27,9.1-55.3,5.3-83
		C311,138,308.8,128.9,306.9,119.7L306.9,119.7z"/>
</g>
<g>
	<path class="st4" d="M44,230.3c-9.2-19.4-13-41.1-12.1-62.5c1-16.5,4.3-33.4,12.1-48.1c-7.5,27-9.1,55.3-5.3,83
		C39.9,212,42.1,221.1,44,230.3L44,230.3z"/>
</g>
</svg>
